<svg xmlns="http://www.w3.org/2000/svg" viewBox="0 0 640 360" fill="none">
  <rect width="640" height="360" fill="#0f0e0c"/>
  <rect x="24" y="24" width="592" height="312" rx="12" fill="#1a1815" stroke="rgba(212,175,55,0.2)" stroke-width="1"/>
  <rect x="24" y="24" width="592" height="36" rx="12" fill="#12100e"/>
  <circle cx="48" cy="42" r="5" fill="#E4574E" opacity="0.8"/>
  <circle cx="68" cy="42" r="5" fill="#F4B740" opacity="0.8"/>
  <circle cx="88" cy="42" r="5" fill="#3DBE76" opacity="0.8"/>
  <rect x="200" y="34" width="240" height="16" rx="4" fill="#2a2620"/>
  <rect x="48" y="88" width="140" height="220" rx="8" fill="#141210"/>
  <rect x="48" y="104" width="80" height="8" rx="2" fill="#d4af37" opacity="0.9"/>
  <rect x="48" y="124" width="100" height="6" rx="2" fill="#3a3530"/>
  <rect x="48" y="140" width="90" height="6" rx="2" fill="#3a3530"/>
  <rect x="48" y="156" width="95" height="6" rx="2" fill="#3a3530"/>
  <rect x="208" y="88" width="384" height="100" rx="8" fill="url(#liviaGrad)"/>
  <rect x="224" y="108" width="120" height="10" rx="2" fill="#f5f1e6" opacity="0.95"/>
  <rect x="224" y="128" width="200" height="8" rx="2" fill="#f5f1e6" opacity="0.5"/>
  <rect x="208" y="204" width="180" height="104" rx="8" fill="#141210"/>
  <rect x="224" y="220" width="60" height="8" rx="2" fill="#d4af37"/>
  <rect x="224" y="240" width="140" height="6" rx="2" fill="#3a3530"/>
  <rect x="224" y="254" width="120" height="6" rx="2" fill="#3a3530"/>
  <rect x="404" y="204" width="188" height="104" rx="8" fill="#141210"/>
  <rect x="420" y="220" width="80" height="8" rx="2" fill="#d4af37"/>
  <rect x="420" y="240" width="150" height="6" rx="2" fill="#3a3530"/>
  <defs>
    <linearGradient id="liviaGrad" x1="208" y1="88" x2="592" y2="188" gradientUnits="userSpaceOnUse">
      <stop stop-color="#c9a227" stop-opacity="0.35"/>
      <stop offset="1" stop-color="#1a1815"/>
    </linearGradient>
  </defs>
</svg>
