<svg xmlns="http://www.w3.org/2000/svg" viewBox="0 0 640 360" fill="none">
  <rect width="640" height="360" fill="#0b0a09"/>
  <rect x="24" y="24" width="592" height="312" rx="12" fill="#12100e" stroke="rgba(212,175,55,0.2)" stroke-width="1"/>
  <rect x="24" y="24" width="592" height="36" rx="12" fill="#0b0a09"/>
  <rect x="48" y="88" width="260" height="220" rx="8" fill="#1a1815"/>
  <rect x="64" y="108" width="100" height="8" rx="2" fill="#d4af37"/>
  <rect x="64" y="128" width="180" height="6" rx="2" fill="#3a3530"/>
  <rect x="64" y="148" width="160" height="6" rx="2" fill="#3a3530"/>
  <rect x="64" y="180" width="80" height="28" rx="14" fill="#d4af37"/>
  <rect x="328" y="88" width="264" height="104" rx="8" fill="#141210"/>
  <rect x="344" y="108" width="80" height="8" rx="2" fill="#94a3b8"/>
  <rect x="344" y="128" width="200" height="48" rx="4" fill="#0b0a09" stroke="#2a2620"/>
  <rect x="328" y="208" width="124" height="100" rx="8" fill="#141210"/>
  <rect x="344" y="224" width="60" height="6" rx="2" fill="#d4af37"/>
  <rect x="468" y="208" width="124" height="100" rx="8" fill="#141210"/>
  <rect x="484" y="224" width="60" height="6" rx="2" fill="#d4af37"/>
</svg>
